<?xml version="1.0" encoding="utf-8"?>
<!-- Generator: Adobe Illustrator 22.1.0, SVG Export Plug-In . SVG Version: 6.00 Build 0)  -->
<svg preserveAspectRatio="none" version="1.1" id="Layer_1" xmlns="http://www.w3.org/2000/svg" x="0px" y="0px"
     viewBox="0 0 1916.5 237.9" style="enable-background:new 0 0 1916.5 237.9;" xml:space="preserve">
<style type="text/css">
	.st0{fill:#FFFFFF;}
</style>
    <title>bottom-sep-white</title>
    <path class="st0" d="M1052.8,45.8l-0.2-0.5L1052.8,45.8z"/>
    <path class="st0" d="M1052.8,45.8c0.1,0.3,0.2,0.6,0.3,0.8C1053,46.3,1052.9,46,1052.8,45.8z"/>
    <path class="st0" d="M1053.2,46.7c0.2,0.4,0.3,0.8,0.4,1C1053.5,47.4,1053.3,47.1,1053.2,46.7z"/>
    <path class="st0"
          d="M1043.4,43.6c-2.4-0.1-2.9-2-6.1-1.5c-2.5,3.8,1.9,2.2,0.6,7.3C1041.9,50.1,1043.5,47.9,1043.4,43.6z"/>
    <path class="st0" d="M1112,42c1.1-3,2.5,1.5,5.2,0.3C1119.2,38.3,1107.3,39.7,1112,42z"/>
    <path class="st0" d="M1057.6,47.7c-0.8,0.2-2-0.1-2.1,0.9C1056.3,48.4,1057.5,48.7,1057.6,47.7z"/>
    <path class="st0" d="M999.3,51c3.3-0.7,3.9,1.2,5,2.4c-0.3-4.8,6.7-1.3,8.5-3.6C1012.1,42.5,998.4,39.8,999.3,51z"/>
    <path class="st0" d="M976.2,55.7c0.1,2.7-4.1,0.5-3.4,3.9c0.7,2.7,2.5,4.3,3.7,6.5C976,62.9,978.4,57.3,976.2,55.7z"/>
    <path class="st0" d="M978.7,64.2C977.2,70.1,983.1,64.9,978.7,64.2z"/>
    <path class="st0" d="M980.9,46.7c3.3-0.3,3.5,2.1,7.2,1.5c0.7-3.9-2.9-3.9-4.8-5.5C983.8,45.6,981,44.7,980.9,46.7z"/>
    <path class="st0" d="M1190.3,33.8c0.4-3,3.6,4.4,5.2,0.3c-3.2-0.6-5.1-8.8-8.1-3.7c1.6,0.2,3.6,0.1,3,2.3
	C1189.8,32.7,1189.2,33.5,1190.3,33.8z"/>
    <path class="st0"
          d="M1146.4,39.1c-0.1-2,1.3-2.2,1.3-4.1c-2.3-0.4-3.9,0-4.3,1.8C1145.5,36.7,1145.4,38.4,1146.4,39.1z"/>
    <path class="st0" d="M1153.5,41.7c-0.8,0.2-2-0.1-2.1,0.9C1152.2,42.4,1153.4,42.7,1153.5,41.7z"/>
    <path class="st0" d="M1167.3,36.4c-0.8,0.2-2-0.1-2.1,0.9C1166,37.1,1167.3,37.4,1167.3,36.4z"/>
    <path class="st0" d="M1175.1,59.7c1.2-0.1,2.9,0.4,3.2-0.8C1177.1,59,1175.4,58.5,1175.1,59.7z"/>
<path class="st0" d="M1176.1,29.7C1179.1,32.7,1173.5,26.4,1176.1,29.7z"/>
<path class="st0" d="M1119.2,42.5C1120.1,46.7,1120.7,38.5,1119.2,42.5z"/>
<path class="st0" d="M1151.2,30.1c-0.8,0.2-2-0.1-2.1,0.9C1149.8,30.8,1151.1,31.1,1151.2,30.1z"/>
<path class="st0" d="M1116.9,30.9C1111.4,33,1120.2,33.8,1116.9,30.9z"/>
<path class="st0" d="M1144.1,42.1C1142.6,48,1148.6,42.8,1144.1,42.1z"/>
<path class="st0" d="M1150.5,40.4c0.3-1.4-0.5-2.8-1.9-3.2c-0.1,1-0.9,1.2-1.2,2C1148.8,39.3,1148.8,40.6,1150.5,40.4z"/>
<path class="st0" d="M1178.8,35.1c-1.2,3.7,4.3,2.1,5.1,1.4c1.3-2-1.3-5-1.9-2.2C1184.8,35.3,1179.6,37.4,1178.8,35.1z"/>
<path class="st0" d="M894.7,62.7C895.6,66.9,896.2,58.7,894.7,62.7z"/>
<path class="st0" d="M910.8,55.5c2,0.6,6.1,4.3,8.2,1.6C917.5,53.6,913,51,910.8,55.5z"/>
<path class="st0" d="M931.8,60.3"/>
<path class="st0" d="M915.4,48.5c5.3,0.6,7.1,4.2,11,5.9C926.9,49.9,916.3,45.5,915.4,48.5z"/>
<path class="st0" d="M892.7,62.6c-2.3-1.3-12.8-4-12.5,1.2C886.3,60.9,889.5,68.2,892.7,62.6z"/>
<path class="st0" d="M920.9,59.3C923.2,63.5,922.6,56,920.9,59.3z"/>
<path class="st0" d="M971.1,68.9C969.6,74.8,975.6,69.6,971.1,68.9z"/>
<path class="st0" d="M886.5,77.7c2.1-2.6,2.3-10-1.4-10.5C886.5,72.1,885.2,73.8,886.5,77.7z"/>
<path class="st0" d="M860.3,50c-0.1,1.5,5.2,0.2,5.3-1.7C863.6,48.6,859.5,46.5,860.3,50z"/>
<path class="st0" d="M885.3,48.6c-0.1,3.7,3.1,4.4,7,4.6C894.5,47.7,888.2,46.6,885.3,48.6z"/>
<path class="st0" d="M852.2,63c-0.8,0.2-2-0.1-2.1,0.9C850.8,63.7,852.1,64,852.2,63z"/>
<path class="st0" d="M944.3,50.5c1.1-2.9,1.6-1.1,4.2-0.8c1.5-3.4-5-4.6-6.1-2.5C944.2,47.4,942.9,50.1,944.3,50.5z"/>
<path class="st0" d="M941.2,66.9l-4.2-0.3c-1,0.8-2.6,6.4-0.5,7.2C938,71.5,943.1,69.7,941.2,66.9z"/>
<path class="st0" d="M931.8,60.3c0.1-0.3,0.3-0.9,0.4-1.4C932,59.5,931.9,60,931.8,60.3z"/>
<path class="st0" d="M970.2,66.7l0.4-6.2c-5.5-0.2-4.8-1.4-8-4.7c-0.5,1.2-1.3,2.2-2.3,3c0.2-3.8-9.2-2.1-7.2-1.5
	c4.6,0.2,0.1,2.9-0.3,4.1C958,57.8,963.2,66.1,970.2,66.7z"/>
<path class="st0" d="M951.7,48.9C949,52.2,955.3,46.6,951.7,48.9z"/>
<path class="st0" d="M943.3,80.5c-3.8,0.7-5.4-2.2-7.2-0.5C936.8,84.8,942.1,85.1,943.3,80.5z"/>
<path class="st0" d="M932.6,57.4l-0.1,0.4L932.6,57.4z"/>
<path class="st0" d="M932.2,58.7c0.1-0.3,0.2-0.7,0.2-0.9c0,0.1,0,0.1-0.1,0.2C932.3,58.2,932.3,58.5,932.2,58.7z"/>
<path class="st0" d="M932.6,57.4C932.6,57.2,932.6,57.2,932.6,57.4z"/>
<path class="st0" d="M945.2,38.1C946.1,42.2,946.6,34.1,945.2,38.1z"/>
<path class="st0" d="M1232.4,40.7c1.2-0.1,2.9,0.4,3.2-0.8C1234.4,40,1232.7,39.5,1232.4,40.7z"/>
<path class="st0" d="M1676,18.6C1679,21.6,1673.4,15.3,1676,18.6z"/>
<path class="st0" d="M1661.4,18.6c2.5-1.4,4.4,0.6,5.2-0.7C1665.5,16.5,1661.7,16,1661.4,18.6z"/>
<path class="st0" d="M1733.3,14.1c-6.1-2-10.1-0.2-15.6,1C1720.7,16.2,1729.1,15.2,1733.3,14.1z"/>
<path class="st0" d="M1570.7,10.5c0.1,2-1.3,2.2-1.3,4.1C1573,17,1574.4,9.6,1570.7,10.5z"/>
<path class="st0" d="M1683.6,13.9C1672.9,12.3,1680.2,17.9,1683.6,13.9z"/>
<path class="st0" d="M1696.8,16.9c1.9,0,3.5-0.5,4.3-1.8C1699.3,15.2,1696,13.7,1696.8,16.9z"/>
<path class="st0" d="M1413.8,12.4C1415.1,18.4,1418.8,15.1,1413.8,12.4z"/>
<path class="st0" d="M1407.4,15.1C1408.4,19.3,1408.9,11.1,1407.4,15.1z"/>
<path class="st0" d="M1500.3,23.4c-0.6,4.2,7.8,3.4,4.1,0.3C1503.5,26.7,1502.3,22.5,1500.3,23.4z"/>
<path class="st0" d="M1417.6,17.9C1418.6,22,1419.1,13.9,1417.6,17.9z"/>
<path class="st0" d="M1507.7,5.2c0.2-1.9,3.5-0.5,3.3-2.9C1509.4-0.9,1504.6,3.4,1507.7,5.2z"/>
<path class="st0" d="M1753.2,27.9c-0.8,0.2-2-0.1-2.1,0.9C1751.9,28.6,1753.1,28.9,1753.2,27.9z"/>
<path class="st0" d="M1736.5,14.3c-0.8,0.2-2-0.1-2.1,0.9C1735.1,15.1,1736.4,15.3,1736.5,14.3z"/>
<path class="st0" d="M4.4,62.2C3,62.1,1.5,61.9,0,61.7v1.6C1.9,62.6,3.5,65.4,4.4,62.2z"/>
<path class="st0" d="M1859.7,17.4c1.6,0,3.6,0.4,3.2-1.9l-2.1-0.1C1860.8,16.4,1860,16.6,1859.7,17.4z"/>
<path class="st0" d="M1253.2,41.1c-0.2,0.2-0.3,0.4-0.4,0.6C1253,41.6,1253.1,41.4,1253.2,41.1z"/>
<path class="st0" d="M1214.4,31.2c1.1,0.3,1.5,1.3,1.9,2.2c-2.3,0.5-3.1-3.1-3.2,0.8c-0.6,0-1.2,0.8-0.1,1c1-2,4.1,2.1,6.1,2.5
	c1.1-1.3,1.2-3.8,3.4-3.9l3.1,0.2C1225.3,28.9,1215.6,30.7,1214.4,31.2z"/>
<path class="st0" d="M1382.6,14.5c4.4,0.3,4.5,4.5,9,4.8C1397,14.3,1385.6,11.9,1382.6,14.5z"/>
<path class="st0" d="M1769.4,33.2c-1.8-4.8-10.5-2.8-12.2-3.9C1760,31.7,1765.3,31.9,1769.4,33.2z"/>
<path class="st0" d="M1845.1,18.5c-0.8,0.2-2-0.1-2.1,0.9C1843.8,19.2,1845,19.5,1845.1,18.5z"/>
<path class="st0" d="M1842.2,31.8c2.3,0.5,3.9,0,4.3-1.8C1844.1,29.6,1842.5,30,1842.2,31.8z"/>
<path class="st0" d="M1301.4,33.9c3.8-3.6,8-0.1,11.6-3.4C1308.4,27.8,1302.8,29.7,1301.4,33.9z"/>
<path class="st0" d="M1231.1,29.2c0.8-0.2,2,0.1,2.1-0.9C1232.4,28.5,1231.2,28.2,1231.1,29.2z"/>
<path class="st0" d="M851.3,45.3l-2.1-0.1c0,0.7-0.1,1.4-0.1,2.1l2.1,0.1C851.2,46.7,851.2,46,851.3,45.3z"/>
<path class="st0" d="M1257.4,39.3c-1.5,0.5-5.3-1.6-5.2,0.7C1253.7,39.5,1257.4,41.5,1257.4,39.3z"/>
<path class="st0" d="M1237.9,35.9l0.2-3.1c-1.9,0-3.5,0.5-4.3,1.8C1235.3,35,1235.8,36.2,1237.9,35.9z"/>
<path class="st0" d="M1255.8,31.9c0,0-4.6-2.8-3.1-0.2C1253.7,33.4,1256.4,33.1,1255.8,31.9z"/>
<path class="st0" d="M1251.9,28.5c-2.5,0.2,0.9-4.7-2.9-3.3c0.9,2-3.3,3.2-0.3,4.1C1248.7,26.1,1251.6,32.2,1251.9,28.5z"/>
<path class="st0" d="M1215.6,28.2c2.3,0.6,5.4,2.8,6.3-0.6C1220,28,1215.9,25.9,1215.6,28.2z"/>
<path class="st0" d="M1225.7,1.9c1.2-0.3,2.3-1,3.2-1.9C1227.6-0.2,1223.1,1.3,1225.7,1.9z"/>
<path class="st0" d="M1203.1,29.4c2.6,0.3,3.1,2.2,4.2-0.8C1206,27.2,1204.2,27.8,1203.1,29.4z"/>
<path class="st0" d="M1228,30.1c0-0.7,0.1-1.4,0.1-2.1l-2.1-0.1c0,0.7-0.1,1.4-0.1,2.1L1228,30.1z"/>
<path class="st0" d="M1306.5,34.3c0.8-0.2,2,0.1,2.1-0.9C1307.9,33.6,1306.6,33.3,1306.5,34.3z"/>
<path class="st0" d="M1200,29.2C1197,32.2,1203.3,26.6,1200,29.2z"/>
<path class="st0" d="M1301.6,30.8c-1.4-2.8-8-4.1-7.2-1.5C1297.7,26.8,1299.2,33.3,1301.6,30.8z"/>
<path class="st0" d="M1376.2,16.1c-0.8,0.2-2-0.1-2.1,0.9C1374.9,16.9,1376.2,17.1,1376.2,16.1z"/>
<path class="st0" d="M1257.6,37.2c1.9,0,3.5-0.5,4.3-1.8C1260.4,33.7,1257.3,34,1257.6,37.2z"/>
<path class="st0" d="M1326.9,25.3C1320.3,23.6,1324.4,28.3,1326.9,25.3z"/>
<path class="st0" d="M1323.5,29.2c0.8-0.2,2,0.1,2.1-0.9C1324.8,28.5,1323.6,28.2,1323.5,29.2z"/>
<path class="st0" d="M1266.5,27.5c1.2-0.1,2.9,0.4,3.2-0.8C1268.5,26.7,1266.8,26.3,1266.5,27.5z"/>
<path class="st0" d="M1291.3,29.1C1287.8,23.1,1283.1,27.1,1291.3,29.1z"/>
<path class="st0" d="M1306,27c0.3-1.5,2.6-0.8,4.2-0.8c0.2,0.8-0.1,2,0.9,2.1c0.3-1.5,1.8-1.6,2.3-3
	C1310.5,24.1,1303.4,23.5,1306,27z"/>
<path class="st0" d="M1298.3,32.7C1299.3,36.9,1299.8,28.7,1298.3,32.7z"/>
<path class="st0" d="M730.5,50.7c-4.5-3.3-8.6-0.7-11.3-1.8C723,50.8,728.2,58.3,730.5,50.7z"/>
<path class="st0" d="M407.6,69.5c-0.1-2.6-3.6-3.7-0.6-6.3c-3.8-2.5-5.1,0.6-8.4,1.5C398.9,70.5,404.3,70.5,407.6,69.5z"/>
<path class="st0" d="M413.3,46c-1.1-0.1-2.2-0.5-3-1.3c-0.4,0.6-2.8,3.8-0.3,4.1C410.3,47,413.5,48.4,413.3,46z"/>
<path class="st0" d="M402.1,58.8c2.3-9.9-11.6,0-9.7-10c3.8,1,4.7-1.3,4.5-4.9c-4.4,1.8-10.8-2.8-13.6,2.2c4.2,0.4,2.7,4.4,4.6,8.6
	C394.8,54.1,394.5,59.8,402.1,58.8z"/>
<path class="st0" d="M375.2,42.4c-3.7,0.3-6.1,1.3-9.3-0.6c0.4,5,7.1,5.3,10,5.9C372.8,46.2,377.6,43.8,375.2,42.4z"/>
<path class="st0" d="M386.2,63.9c2.3,1.4,4.4,3.3,6.2,0.4C391.7,63.5,386.8,61.7,386.2,63.9z"/>
<path class="st0" d="M379.6,38.6c-2.3-0.5-3.9,0-4.3,1.8C377.1,40.2,380.4,41.7,379.6,38.6z"/>
<path class="st0" d="M504.9,72.9c1.4,1.1,3.3,1.6,5.1,1.4c0.1-1.1,0.5-2.2,1.3-3c-1.5-0.6-2.5-1.7-4-2.3
	C507.8,71.8,505.1,70.8,504.9,72.9z"/>
<path class="st0" d="M365.2,67.7c0.1-1.4,1.9-0.8,2.2-1.9c-1.5-0.6-2.5-1.7-4-2.3C362.9,65.8,363.4,67.3,365.2,67.7z"/>
<path class="st0" d="M364.4,47.9l-2.1-0.1c0,0.7-0.1,1.4-0.1,2.1l2.1,0.1L364.4,47.9z"/>
<path class="st0" d="M359.2,48.6c-0.5,6.1-11.1,0.7-9.9,8.7c4.6-1,3.9,5.2,7.1,2.5c1.6-2.2,4.5-6.5,7.5-3.6
	C364.9,51.4,360,51.8,359.2,48.6z"/>
<path class="st0" d="M369.4,51.4c1.4,0.4,1.9,1.6,4.1,1.3C373.9,49.7,369.7,48.5,369.4,51.4z"/>
<path class="st0" d="M454.6,48.8c-0.6,0.6,0.6,1,1,1.1C463.8,52.5,460.1,43.1,454.6,48.8z"/>
<path class="st0" d="M479.4,51.5c-3.4-0.6-1.7-5.6-5.9-5.6c-1.8,2.3-7.2,0.6-7.6,4.7C471.1,52.1,475.5,56.2,479.4,51.5z"/>
<path class="st0" d="M473.2,65.6C474.2,69.8,474.7,61.6,473.2,65.6z"/>
<path class="st0" d="M484.4,53.9c-0.1,1.3-1.4,1.3-1.2,3l2.1,0.1C486.5,55.7,486.5,54.6,484.4,53.9z"/>
<path class="st0" d="M487.1,59.3c0.1-1-1.7-1.4-2.1-0.1C486.3,59.1,486.6,60.7,487.1,59.3z"/>
<path class="st0" d="M492.9,50.3c1-3.8-3.5-2.8-4.9-4.5C488,48.8,489.5,50.4,492.9,50.3z"/>
<path class="st0" d="M480.7,63l-4.1-0.3l-0.1,2.1C478.2,64.7,481.5,66.2,480.7,63z"/>
<path class="st0" d="M451.1,70.3c3.4-1,0.6,3.4,4,2.3c2.3-2-1.1-4-2.8-5.4C452.3,68.4,451.9,69.5,451.1,70.3z"/>
<path class="st0" d="M458.8,64.6c-3-1.1-1.1-1.6-0.8-4.2c-3.3,0-4.3-2.1-8.2-1.6c-0.1,1.1-0.5,2.2-1.2,3c2.5,0.8,5.3,1.2,4.9,4.5
	C456,66.7,457.8,66.1,458.8,64.6z"/>
<path class="st0" d="M465.6,71.3c1.2-0.1,2.9,0.4,3.2-0.8C467.5,70.6,465.8,70.1,465.6,71.3z"/>
<path class="st0" d="M347.9,62.4c0.3-2.2-0.6-3.3-2.9-3.3C344.1,61.8,347,61.2,347.9,62.4z"/>
<path class="st0" d="M415.9,54.5c-4.9-0.4-6.9,2.5-10.6,3.4c2.2,2,7.7,1,10.2,2.8C413.1,57.1,412,57.5,415.9,54.5z"/>
<path class="st0" d="M765.9,65.5C766.8,69.7,767.3,61.5,765.9,65.5z"/>
<path class="st0" d="M681.1,76.4c-1.6,1.4-1.8,3.9,1.8,3.2C683.2,78.3,682.4,76.9,681.1,76.4z"/>
<path class="st0" d="M345.2,56c0.8-0.2,2,0.1,2.1-0.9C346.5,55.3,345.3,55,345.2,56z"/>
<path class="st0" d="M681.3,88.9c5.8-1.5,7.3,7.7,11.3,1.8c-4.1-1.4-3-4.5-9-5.8C684.2,87.8,681.4,86.8,681.3,88.9z"/>
<path class="st0" d="M792.2,75.6c-1.8-0.5-3.7-0.2-5.2,0.7c-0.3,1.4,0,2.9,0.8,4.2C790.5,80.3,791.4,78,792.2,75.6z"/>
<path class="st0" d="M671.1,86.1c-0.3,0.8-0.9,1.2-2.1,0.9c0.2,2.2,1.7,4,3.9,4.4C673.1,88.9,672.6,87.1,671.1,86.1z"/>
<path class="st0" d="M812.8,77C813.8,81.2,814.3,73,812.8,77z"/>
<path class="st0" d="M1184,51c2.1,2.9,3.4,0.5,6.1,2.5c0.7-3.2-1-4.3-2.8-5.4C1188.7,51.9,1183.8,48.5,1184,51z"/>
<path class="st0" d="M1372.4,27.3C1374.7,31.5,1374.1,24,1372.4,27.3z"/>
<path class="st0" d="M911.2,80.4l-4.1-0.3c-1,3.1,0.8,3.8,0.6,6.3C910.9,86.7,911,83.5,911.2,80.4z"/>
<path class="st0" d="M693.3,80.3c-3.1-1.6-9.9-3.1-9.5,2.5c3.2,2,7.4,0.9,9.4-2.3C693.2,80.5,693.2,80.4,693.3,80.3z"/>
<path class="st0" d="M266.4,39.3C263.4,42.3,269.8,36.7,266.4,39.3z"/>
<path class="st0" d="M261.9,44.2C258.9,47.2,265.3,41.6,261.9,44.2z"/>
<path class="st0" d="M666,84.8c0-0.6-0.4-1.1-1-1.1c-0.6,0-1.1,0.4-1.1,1C665.1,84.6,665.4,86.2,666,84.8z"/>
<path class="st0" d="M335.6,43.9c-1-3.9-3-4.2-7-3.6c1.6,2.9-4.7,1.7-1.2,3C330.1,41,331.8,44.4,335.6,43.9z"/>
<path class="st0" d="M332.9,54.1C331.4,60,337.3,54.8,332.9,54.1z"/>
<path class="st0" d="M257.1,38.7C259.3,44.1,260,35.3,257.1,38.7z"/>
<path class="st0" d="M631.6,87.6c-0.8,0.2-2-0.1-2.1,0.9C630.2,88.3,631.5,88.6,631.6,87.6z"/>
<path class="st0" d="M282.8,58c3,0.5,4.2-3.7,1.3-4.1C284.2,55.9,282.8,56.2,282.8,58z"/>
<path class="st0" d="M44.2,9.9c3.6-1.1,7,2.8,8.3,0.6C49.4,10.3,45.8,5.7,44.2,9.9z"/>
<path class="st0" d="M14.6,2.7c-1.4-1.7-4.5-1.5-4.3,1.8C12.3,4.5,13.9,4,14.6,2.7z"/>
<path class="st0" d="M624.7,82c0-0.7,0.1-1.4,0.1-2.1l-2.1-0.1l-0.1,2.1L624.7,82z"/>
<path class="st0" d="M757.5,50.4c-7.7-0.4-4.7-1-4.9-4.5c-2.6,4-7.8,2.7-10.5,2.4C745.6,51.7,755.2,56.3,757.5,50.4z"/>
<path class="st0" d="M761.8,48.6c-1.6-0.2-0.6-2.7-3-2.3C757.8,48.4,761.2,51.2,761.8,48.6z"/>
<path class="st0" d="M748.5,62.3c-0.8,0.2-2-0.1-2.1,0.9C747.1,63,748.3,63.3,748.5,62.3z"/>
<path class="st0" d="M760.4,69.3C763.4,72.3,757.8,65.9,760.4,69.3z"/>
<path class="st0" d="M758,59.8c0.5,1.5-1.6,5.3,0.7,5.2C758.3,61.7,761.4,61,758,59.8z"/>
<path class="st0" d="M735.9,63.5c-3.2-1.1-4-4.3-4.7-7.6c-3.3,0.9-2.3-0.1-6.2-0.4C716.6,61.9,730.8,68.2,735.9,63.5z"/>
<path class="st0" d="M744.7,63.8l0.4-0.2L744.7,63.8z"/>
<path class="st0" d="M744.2,64l-1.7,0.7L744.2,64z"/>
<path class="st0" d="M741.1,48.3c-0.8,0.2-2-0.1-2.1,0.9C739.8,49,741,49.3,741.1,48.3z"/>
<path class="st0" d="M744.7,63.8l-0.5,0.2L744.7,63.8z"/>
<path class="st0" d="M749.2,66.5C750.1,70.6,750.7,62.5,749.2,66.5z"/>
<path class="st0" d="M818.4,86.7c0.6-2-2.4-5.5-2.9-3.3C818,83.1,814.6,88,818.4,86.7z"/>
<path class="st0" d="M824.4,74.6c0.4-1.6,2.3-0.6,3.1,0.2C829.1,69.7,820.8,72.1,824.4,74.6z"/>
<path class="st0" d="M823.5,57.9c1.9,2.3,4.4,0.3,5.3-1.7C826.9,56.7,824.4,56.5,823.5,57.9z"/>
<path class="st0" d="M836.5,48.4c0.5-2.7-1.2-3.5-3.9-3.4C832.1,47.8,834.6,47.9,836.5,48.4z"/>
<path class="st0" d="M820.1,76.4c-1.1,1.3-2.9,1.8-3.4,3.9C819.1,81,823.1,78.2,820.1,76.4z"/>
<path class="st0" d="M812.2,56.2C813.1,60.3,813.6,52.2,812.2,56.2z"/>
<path class="st0" d="M824.3,45.5c-2.6,0.2-5.1,2.6-9.4,0.4C814.1,50.2,828.9,49.1,824.3,45.5z"/>
<path class="st0" d="M522,65.8c2.6,0,4.3,0.8,5,2.4c3.1,1,2.2-2.7,5.3-1.7c1.5,2.3,2,5.3,5.9,5.6c0.5-6,6-4.9,10-9.7
	c-6,0-3.6-7.2-5.5-10.7c-5.5-2.2-11.5-3.3-17.4-3.3c-1.1,1.4-1.6,3.3-1.4,5.1c4.6-1.3,8.5,1.9,13.5-0.1c-1.7,4.1,1.6,3.8,2.8,5.4
	c-2.5-0.3-5-0.5-5.3,1.7c1.9,0.6,6.3-1,5,2.4c-3.1-1.1-13.3-1.1-8-3.7c-5.6-0.7-7,1-11.4-0.8C522,61.3,526.9,62.3,522,65.8z"/>
<path class="st0" d="M807.4,49.6l4.1,0.3C813.2,44.7,806.8,44.7,807.4,49.6z"/>
<path class="st0" d="M801.2,49.2c-2.3-0.5-3.9,0-4.3,1.8C798.8,50.9,802,52.4,801.2,49.2z"/>
<path class="st0" d="M800.9,54.3c-0.5,2-4,0.5-3.4,3.9l3.1,0.2C799.3,56,803.5,54.8,800.9,54.3z"/>
<path class="st0" d="M583.5,77.1c0.1-1,0.9-1.2,1.2-2c-0.6-0.3-3.8-2.8-4.1-0.3c0.8,0.3,1.1,0.9,0.9,2.1L583.5,77.1z"/>
<path class="st0" d="M587.5,63.9c-1.8,6.7,5.4,7.3,4.3,12.7c1.1-4.3,3.4-7.2,6.8-8.9c-4.3-1.7,0-4.6,0.5-7.2
	C594.1,57.3,591.8,63,587.5,63.9z"/>
<path class="st0" d="M650.4,70.2C651.3,74.4,651.8,66.2,650.4,70.2z"/>
<path class="st0" d="M647.5,51.3c-3.1-1.8-4.5,0.3-7.4,1.6c1.4,0.4,2.2,1.8,1.9,3.2c-0.8,0.2-2-0.1-2.1,0.9
	C645.2,58.4,644.4,52.7,647.5,51.3z"/>
<path class="st0" d="M732.5,68.4C733.4,72.6,733.9,64.4,732.5,68.4z"/>
<path class="st0" d="M609.5,60.2c1.3-1.5,2.8-2.7,4.4-3.9c-2.1-6.3-11.2-6.3-18.3-6.4C597.1,56.1,607,54.9,609.5,60.2z"/>
<path class="st0" d="M555.8,72.2c-1.8-0.4-2.2-1.9-1.8-4.3l-3.1-0.2c-1.5,2.3,0,1.9-1.4,5.1C551.4,72.3,555.5,74.4,555.8,72.2z"/>
<path class="st0" d="M558.8,58.9c2.8,0.9,2.2-1.9,4.3-1.8c1.2,7.7,7.5,7.7,14,8.2c-0.2-4-4.5-4.5-6.8-6.7c-0.5-4.3,3.6-3.3,2.6-8.1
	c-1.2-0.6-9-1.2-11.4,0.3c2.6,0,4.3,0.8,5,2.4c-3.2-0.3-5.8,0.1-7.4,1.6C565.3,55,559.6,57.2,558.8,58.9z"/>
<path class="st0" d="M641.3,65.4c-2.5,0.3-2.1-2-5.1-1.4C636,67.7,640.2,67.7,641.3,65.4z"/>
<path class="st0" d="M580.5,60.3c3.9,2.5,7-0.3,10.5-1.4C586.9,58.8,583.1,58.9,580.5,60.3z"/>
<path class="st0" d="M650.4,54.6c-1.6,0-3.6-0.4-3.2,1.9C648.5,56.8,649.9,56,650.4,54.6z"/>
<path class="st0" d="M689.1,50c-0.5,3.3,0.9,5.1,3.8,5.4C693,52.4,692.9,49.6,689.1,50z"/>
<path class="st0" d="M624.3,57c-2.5,0.5-7.4-1.8-8.3,0.5c1.9,2.7,4.5-1.4,5,2.4c-2.7-0.1-5,0.3-6.3,1.7c7.2,2.7,14.1-0.1,19.4,4.4
	C631.8,60,624.1,63.9,624.3,57z"/>
<path class="st0" d="M654.2,60.1C655.4,63.6,657,56.2,654.2,60.1z"/>
<path class="st0" d="M704.7,50l-4.1-0.3c-0.3,2.5-0.5,5,0.6,6.3c3.7-1.5,3.6-0.1,5,2.4c0.1-0.6,0.2-1.2,1.1-1c0.6,0,1.2-0.1,1.1-1
	C705.3,55.8,706.3,51.8,704.7,50z"/>
<path class="st0" d="M637.1,51.7c-1.4-0.4-1.9-1.6-4-1.3C631.2,53.1,637.3,53.5,637.1,51.7z"/>
<path class="st0" d="M731.8,77.7c3.1-1.2,5.5-3.7,6.7-6.8c-2-0.2-1.1-2.9-4-2.3c-0.2,5.3-7.5,2.5-11.6,3.4
	C723.2,79.1,731.5,70.1,731.8,77.7z"/>
<path class="st0" d="M844.3,40.7C845.3,44.8,845.8,36.7,844.3,40.7z"/>
<path class="st0" d="M632.9,68c-0.8,0.2-2-0.1-2.1,0.9C631.6,68.7,632.8,69,632.9,68z"/>
<path class="st0" d="M625.7,52C632.3,55,630.6,48.9,625.7,52z"/>
<path class="st0" d="M628.3,75C629.5,78.5,631.1,71.2,628.3,75z"/>
<path class="st0" d="M1880.6,31.2c-1.9,7.5-18.2,4-27.2,3.4c-13.9-1.1-6.9-0.9,5,2.4c-45,1.9-87,0.4-125-8.4
	c-0.9-2.4-1.8-4.9-3.7-6.5c-4.8,1.6-9.9,2.8-14.8,4.2c-0.1-2,1.3-2.2,1.3-4.1c-5.7,1.2-17.9-4.1-21.9,1.7c-3.6-3-3.7-9.1-7.5-11.9
	c-0.6,3.5,4.5,7.7-0.6,9.3c-7.3-1.4-21.2-0.1-35.3-0.3c-0.8-1.9,0.4-5.5-2.8-5.4c-0.8,1.8,2.7,4.5-0.3,5.2c-6.3,1.4-2.5-6-3.7-6.5
	c-3,1.6-6.2,2.8-9.6,3.5c-1.9-0.2-0.5-3.5-2.9-3.3c-3.1,2.2-4.9,1-10.4,0.3c-14.6,8.3-30.3,6.3-47.5-3.2c-0.1,1.7-0.2,3.4-0.3,5.2
	c-9.7,4.7-20.6-0.4-28.1,1.2c-3.1,0.7-3.6,7.3-7.4,2.6c-0.6,4.5-5.4,4.2-10.6,3.4c-1.4-1.7-1.6-4.5-3.8-5.4c0.1,2.4-0.5,3.9-2.3,4
	c-0.3-2-4.7-0.4-2.8-4.3c-3.5,2.3-8.6,2.8-9.8,7.6c2.5,3.7,8.4,4.3,8.7,9.9c-1-0.1-1.3,0.8-2.1,0.9c-7.5-3.8-18-5-20.9-12.8
	c-18-2-37.4-3.2-54.7-4.7c0.4-1.4,1.6-1.9,1.3-4.1c-4.3,1.2-3.1-2.5-6.1-2.5c-2-0.1-1.5,2.7-4.3,1.8c-1.2,3.6,2.3,5.5-1.4,6.1
	c-0.5-5.1-3.3-8.2-8.7-8.9c1,5.1-0.9,4.1,2.8,5.4c-0.7,4.8-5.2,5.1-7.8,7.8c0.1-1.1-0.2-2.2-0.8-3.2c-15.7,0.3-35.2,1.8-53,0.6
	c-0.9,1-5.2,3.5-2.4,5c2.9-3.2,22.9-3,16.4,2.1c6.5,2.2,7.9-7.2,12.7-3.3c-3.3,6.7-15.4,6.3-23.1,3.6c0.5,2.8-2.3,1.8-3.3,2.9
	c-2.4-4.2-2.7-2.2-7.2-1.5c1.3-2.8,1-7.4-0.3-10.4c-6.2,4.4-14.9,3.1-25.2,4.5c0.1,5.5,6.1,1.3,4.8,6.5c-3.3,0.3-2.5-3.7-5.1-1.4
	c-0.4,1.9,1,2.4,0.8,4.2c-13-1.4-29.9,8.8-38.1-4.6c0.4,2.1-5.9,2-2.3,4c0.3-2.5,3.4,0,3,1.2c-6.4,4.4-16.2,2-20.6-2.4
	c2-0.1,2.2,1.3,4.1,1.3c0.1-2.7-4.7-6.2-7-3.6c2.8,1.2-1.7,2.7,0.8,4.2c-2.6-0.3-5-0.5-5.3,1.7c1.1,2.2-0.4,3.6,1.7,6.3
	c-3.7,3.7-14.7,2.7-12.7-1.2c-1.4,0.9-6,0.4-5.8-1c1.6-0.8,1.7-3.2,2.4-5c-1.5-0.6-2.5-1.7-4-2.3c-1.1,3.2,1.4,3.3,1.7,5.3
	c-5.8,2.3-15.6,5.8-23,2.6c4.3-0.6,8.1-1.9,8.8-6.7c-3.2,0.1-4.8-2.7-7.2-0.5c-2,1.7,0.7,2.7-0.4,6.2c-1.5,1.6-5.9,0-7.4,1.6
	l0.2-3.1l-5.2-0.3c-1.4,6.9-13.2,5.5-18.7,0.8c-0.5-0.4-0.6-5.3-3-2.3c1.3,0.5,2.1,1.8,1.8,3.2c-3.9,3.8-8.5-3.7-11.4-0.8
	c4,2-1.7,6.5,2.5,9.5c2.4-4.8,12.3-0.8,8.9,5.8c-7.4,1-12.3-1.8-16.7,2c2.5,2.4,10.5-0.1,11.2,3.9l-4.1-0.3
	c-1.2,3.7,4.6,1.2,3.9,4.4c-4-1.2-6.4-1.7-9.4,0.4c-1.3-3.4-6.1-3.8-7.8-6.8c0.1,1.7-6.5,1.3-6.2-0.4c3.9-0.6,11.6,1.1,10.9-7.6
	c-1.8-1.6-6.8-0.5-8.1-2.6l0.5-7.2c-3.3-0.6-5.3-2.5-7-4.6c-2.2,5-7.7,6.1-3.9,12.2c-9.3,1-17.6,3.9-22.7-2.5
	c1.6-0.1,3.8,0.6,4.2-0.8c-3.1-6.6-10-6.6-16.2-6.3c-0.9,4,3.7,3.2,2.6,7.4c-8,0.8-9.5-4-17.4-3.3c-1.1-3.5-1.3-2.3-1.7-5.3
	c-1.8,0.5-6-1.7-6.3,0.6c3.8,0.9,6.7,2.5,7.9,5.7c-4.4,0.9-9,0.5-12.3-1.9c1.5-1.2,1.9-5-0.7-5.2c0.3,8.8-9.2,6-8.3-0.6
	c-0.6,4.9-10.6,8.3-13.7,3.2c-7.3,1-5,4.4-13,7.4c1.7,2.3,3.1,1.1,4,2.3c-3.1,6.5-17-1.4-17,6.1c2.4,0,4.9-0.2,7.3-0.5
	c0.4,4.5,4.2,3.1,5.9,4.5c0.9,5.5-4.5,3.7-8.5,3.6c0,3-0.3,5.6-3.4,5c5.2-6.1-2.4-11.9-7.3-15c-1.3,5.4,6.3,3,4.6,8.6
	c-2.9-1-2.8,1.3-5.2,0.7c-0.6-4.3-3.5-6.7-4.5-10.7c-6,0.6-10.3-6.2-13.5,0.1c0.5,2.7,3.7-3.5,4.1,1.3c-2.4,2.2-3.5,1.5-6.2-0.4
	c0,3.1-7.5,3.2-3.6,7c1.9-1.5,3.7,0.6,7.3-0.6c0,2.6-0.2,5-2.4,5c-4.8,0.3-6.3-2.3-11.3-1.8c1-1.8,3.1-2.4,2.5-6.1
	c-8.4-0.3-8.3,0.6-14.3-3c-0.5,2.8-4.5,1.6-5.4,3.8c2.9,1.5,5.9,3,7,3.6c-1.6,2.8-5.6,0.5-7.6,4.7c-2.4-1.8-4.6-3.7-9.1-3.7
	c-0.2,2.8-0.4,5.5-0.5,8.3c-9.5,9.4-22.7,1.9-33-3.3c-0.6,1.9-3.1,1.7-2.4,5c7,0.8,4.8,9.8,1.2,12.5c3,0,5.2,0.6,6.1,2.5
	c-1.7,3.7-4.2-0.5-6.4,2.7c0.1,3.4,3.2,5.4-0.5,7.2c-10.6,0.5-11.1-7.8-19.1-9.6c1.4-5.5-3.5-5.4-2.4-10.5c1.3-1.1,3.7-0.9,6.3-0.6
	c-2-3.1-5.8-4.5-1.5-8.4c-3.9,0.5-2-4.1-4.9-4.5c-0.4,2.9-3.6,2.6-4.5,4.9c1.8,1.1,3.5,2.2,2.8,5.4c-1,3.6-4.9,2.7-7.3,0.5
	c1.1-3.2,4.2-4.1,4.7-8c-1.8-0.4-5.2,0.7-4-2.3c-3.2-0.7-2.5,3-6.3,1.7c0.1-1.4,0.2-2.8,0.3-4.1c-3.2,1.3-5.5-0.9-8.1-2.6
	c0.2-5.3,3.5,0,4.4-3.9c-1.3-2.6-8.5-3.5-11.3-1.8c4,7.3,0.6,21.1-0.7,25.9c1.4-1.4,3.7-1.7,6.3-1.7c0.7-1.5-0.8-5.4,1.4-5.1
	c9.6,0.6,12.5,10.3,19,10.6c-3.4,2-3.7,5.8-2.8,10.2c-3.2,2.7-9.2,2.1-13.7,3.2c-2.1-8.4-13.3-3.2-12.6-13.3
	c-5.3-0.6-9.7-1.9-12.1-5c-0.8,2.8-5.1,1.6-7.4,2.6c-1.3-1.1-3-1.9-3.9-3.4c3.3-3.9,1.8-7.6-0.3-11.4c2-2.5,7.7-0.9,8.6-4.6
	c-4.7-1.8-9.3-4.7-13.4-1.9c-1.3-4.7-10.8-5.3-9.3-0.6c3.1-3.7,2.5,5.8-0.3,5.2c2.8,3,5.5-0.2,8.3-0.5c-0.4,1.9,1,2.4,0.8,4.2
	c-0.9,3-4,4.8-0.5,7.2c0.3-0.8,0.2-2,1.2-2c1.4,0.2,3.8,4.3,1.8,4.3c-3-1.5-10.8-0.2-12.7,3.3c1.5,0.7,5.4-0.9,5.1,1.4l0,3.1
	c-3.5,0-5.1,2.3-9.4,1.5c-1.4-7.6,7.1-9.6,0.9-13.4c-1.1,1.3-1.2,3.8-3.4,3.9c-1.6-10.7-1.2-21.5,1.1-32.1c-3.4-2.8-5.4,3.7-8.6,4.6
	c-1,3.1,2.7,2.2,1.7,5.3c-1.3,1.5-4.4,0.9-4.4,3.9c1.3,0.2,2.4,0.5,1.9,2.2c-2,7.1-4.8,2.2-9.6,3.5c3.4,5.5,10.9,7.3,11.4,15.3
	c-6.2,1.2-1.7-7-7.9-5.7l-0.4,6.2c2.4,1.8,7.6,1.1,6.9,5.6c-1.4,1.3-4.6,0.7-7.3,0.5c0-1.9-0.5-3.5-1.8-4.3c-2.5,1.2-6,1.3-8.5,2.5
	c-1.4,3.8,3.8,1.9,2.8,5.4c-1.4-0.1-1.1,1.8-2.2,1.9c-1.5-0.9-13.8-1.2-8.8-7.9c-2.3-2.2-6.7-2.6-9-4.8c4.2-3.7,6.4-9.8,10.3-13.8
	c-4.7-2.7-2.6-11.3-8.5-13c3.1,5.4-3.5,2.5-3.6,7c1.9,1.1,3.7-2.9,4.1,0.3c-1.7,1.4-4.7,1.4-7.4,1.6c-0.6,2.5,1.7,2.4,0.7,5.2
	c-3-1.3-2,2.2-2.3,4c-3.1-0.6-5.5,2.4-6.1-1.4c-0.3-3.3,3-2.5,3.5-5c-2.7,0.4-3.7-0.7-2.9-3.3c-3.1-1-2.2,2.7-5.3,1.7
	c0.1-1-0.8-1.3-0.9-2.1c2.4-2.7,2.3-4.7,0.6-8.3c2.7-2,2.3-1.3,6.3-0.6l0.1-2.1c-0.2-0.8,0.1-2-0.9-2.1c-3.6,2.1-7.5,4-13.7,3.2
	c-0.2-1.4-1.3-2.1-0.8-4.2c-5.4,0.3-6,1.8-11.4,0.3c3.6,2.3,1.4,9.8,6.5,10.8c-2,3.2-4.9,1-8.3,0.5c5.5,5,15.1,4.4,20.2,8.6
	c-1,1.5-1.8,3.2-4.3,2.8c-3.6,0.2-2.9-3.3-4.9-4.5c-4.4,5.1,5.2,4.7,6.8,7.7c-0.1-1.4,0.9-2.7,2.3-3c-0.1,2.8-1.9,2-0.3,4.1
	c8.3-1,12.4,0,17.9-4c-1.1,2.6,3.6,6.8,0.3,10.4c-3.8,0.4-2.8-3.3-6-3.5c-1.5,4.2-5,6.1-6.9,9.9c0.5,1.5,4,0.4,4,2.3
	c-3.8,5.5-14.5,2.9-15.6,0c-1.3-3.8,9-6.5,8.1-12.9c-3.3-1.3-6.9-1.5-10.3-0.7c0.1,3.1,2.9,3.9,1.5,8.4c-11.1-2.2-19.3,0.2-23.5-5.7
	c1.5-0.2,1.3-2.2,2.3-3c-1.3-3.1-8.1-1.3-7.9-5.7c-4.2-0.7-4.9,2.5-7.5,3.6c9.4,3.9-8.3,19.7-8.8,6.7c-3.5-0.2-3.8,3.1-7.4,2.6
	c-0.6-6.2-8.2-0.7-10-4.8c0.4-1.4,1.6-1.9,1.3-4c-3-0.3-3.7-2.6-4.9-4.5c-3.2-0.7-3,3.4-5.2,0.7c0.1-2.8,1.9-2,0.3-4.1
	c-6.9-1.5-9.2-1.6-15.6,0c1-3.8-1.5-4.6-0.5-8.3c-2.6-0.1-3.3,1.7-5.2-0.3c2,3.2,3.2,6.2,2.5,8.5c-3.2-1.7-9.1-1.2-10-4.8
	c-0.3,4.1-5.4,2.7-9.5,2.5c-0.6-2.5-0.5-5.1,1.5-7.2c1.5,1,3.9,1.1,2.8,4.3c6.1-0.1,11.4-1.1,11.9-7.5c-7.7,0.1-17.7-2.4-23.8-0.6
	c0.8,4.2,4.5,3.7-0.4,6.2c0.9,2.5,5.5,1.6,7,3.6c-0.6,3.4-5.6,1.7-5.6,5.9c6.3,0.3,10.3-1.4,12.2,3.9c-1.4,0.6-2.1,2.1-2.3,4
	c4.4-0.8,4-7.3,8.8-7.7c2.9,1.7,3.8,5.2,4.6,8.6l3.1,0.2c1.7,0.1,0.8-2.8,2.3-3c-0.4,2.6,7.6,6.1,6,3.5c-2.6,0-3.1-1.8-3.9-3.4
	c5.4-3,9.3,2.5,9.9,6.9c-3.1-0.5-4.2,3-6.3,0.6c-0.5,7.3,3.6,10.5,9.6,12c2.6-1.2-1.7-3.2,1.3-4.1c2.7,2.3,5.9-2.3,10.5-1.4
	c1-3.8-3.4-2.8-4.9-4.5c-2.1,1.7,1.2,3.3-2.3,4c-0.5-1.8-4.9-0.2-5-2.4c6.8-3.2,10.3-4.3,15.8-3.1c-0.2,2-2.9,1.1-2.3,4
	c3.3,2.1,3.6,2.5,5.8,6.6c-4.3,0.8-6.3,2.4-9.3-0.6c-1.6,5.6,5.1,4,4.6,8.6c-7.7-3.5-11.5,6.5-15.6,0c1.5-0.1,1.1-2.4,1.3-4.1
	c-3.1-1-3.8,0.8-6.3,0.6c-0.3,1.4,0,2.9,0.8,4.2c-4.1,1.1-7,2.9-10.5,1.4c5.8-0.5,2.2-4.8,7.6-5.7c-5,0.5-7.2-1.5-10.2-2.8
	c-2.6,1.2,1.7,3.3-1.3,4.1c-1.7-6.4-13.1-1.5-19.3-5.4c-0.2,1.2,0,2.9-1.2,3c-1.4-2.3-7.1-0.9-8.1-3.6c0.5-4.6,10.1,1.1,10.6-3.5
	c-4-0.8-5.5,1.8-7.2-1.5c2.3-3.4,3.3-10.3,0.8-12.4c-1.2,0.9-0.6,3.8-3.3,2.9c0.1-1.5,4.6-3,0.2-3.1c0.1,2-4.2,3.5-5.7,6.9
	c-2.5-1.5-4.5,2.8-5.2-0.4c1.6-1.1,4.3-1,5.4-2.8c-4.1,0-5-2.7-9.2-2.7c-1,2.2-2.3,4-5.4,3.8c-0.1-2,1.3-2.2,1.3-4
	c-5.4-2.1-4.7,2.8-6.5,4.7c0.3-1.7-6.3-2.1-6.2-0.4c4.2,2.8,10.3-0.4,13.4,1.9c0.3,2.9-5.6-1.2-5.3,1.7c1.4-0.1,0.9,6.1,3,2.3
	c-1.9-3.8,7.6,0,11.6-2.3c-0.9,2.8,1.9,2.2,1.8,4.3c-6-0.3-1.5,4.8-6.5,4.8c-2.5,0.2,0.9-4.7-2.9-3.3c-0.3,1.2,0,2.9-1.2,3
	c-0.6-2.1-2.6-2.9-5-3.5c0,2.6,1.8,3.4-1.3,4.1c-3.2,1.2-4.5-0.9-9.3-0.6c-3.6-3.4,2-6.9-1.6-7.4c1.2,2.3-6.5,5.2-2.5,7.1
	c-2.2,0.5-3.1,2.4-6.3,1.7c0.6-5.5-2.8-3.8-6.9-5.7c1.5-0.5,0.4-4,2.3-4c7.3,0.3,10-1.6,13.7-3.2c-2.2-3.9-5-7.3-7.6-10.9
	c0.9,0.7,3.7,2.7,3.2-0.8c-5.8,0.3-5.5-0.9-6-3.5c-2.2,3.3-6.5-2.2-8.3,0.5c-0.7,3.9,5.3,1.8,5.9,4.5c-4,0.5-6,5.5-11,9.6
	c-2.2,0.5-6.7-1.7-7.3,0.5c-3.2,2.8-16.5-1.1-1.4,5.1c-1.7,4.1,1.6,3.8,2.8,5.4c-1.3,0.1-0.7,1.1-0.1,2.1c-2.4,0.2-4.4,1.7-6.2-0.4
	c1.7,4.9-1.1,1.4-2.3,3c2.7,1.5,3.8,4.4,5.8,6.6c2.1-6.8,9,4,10.6-3.5c-1.7-0.6-5.1-4.5-2.8-5.4c1.5,1.6,3.1,3.1,4.9,4.5
	c5.3-4.8,9.8-1.3,16.5,1.1c-1.7,1.4-3.5,2.7-5.4,3.8c-2-2.1-2.6-5.5-8-4.7c-0.5,4.8,5-1.3,3.9,4.4c-3.1,0.5-6.4,0.8-7.5,3.7
	c1.2,0.2,2.9,0,3,1.2c-4.7,0.1-4.1,3-3.6,7c-3.8-1.4-3.1,2.4-6.3,1.7c1.8-3.8-2.7-2.2-1.7-5.3c2.4,0.2,3.2-1.6,6.3-0.6
	c1.9-4.2-5.3-0.5-5-3.4c1.4,0.3,2.8-0.5,3.2-1.9c-3,0.1-3.4-2.2-5-3.4c-1.3,5-9.5,2.1-12.4-0.8c0.2-2,2.9-1.1,2.3-4
	c-3.6-3-10,2.4-12.5,0.2c1.5-2.6,3.6-2.9,6.3-1.7c-2.8-4.1-2.4-2,0.4-6.2c-4.2-1.5-5.1-0.2-8.4,1.5c0.7,1.7,5.1,0.1,3.9,3.4
	c-2.6-2.6-6,1.5-8.2-1.6c2.9-3.7,4-9.5,11.9-7.5c0.9-2.7,3.2-3.7,4.5-5.9c-3.6-0.4-1.8-5.6-5.8-5.6c-2.9-0.4-2.6,2.9-5.4,2.8
	c0.5-1.8,0.2-3.7-0.7-5.2c-4.9,0.7-8.3-3.7-9.4,1.4c-0.1,1.7,2.8,0.8,3,2.3c-2.4,1.7-5.5,2.6-8.5,3.6c3.7,1.3,5.9,3.9,9,5.8
	c-1.5,0.4-2.7,1.5-3.3,2.9c3.8,1.4,1.9-3.8,5.4-2.8c0.4,8.5-11.6,6.5-15.8,3.1c3.2-3.4,7.5,1.2,8.6-4.6c-4.7,2.6-8.2-5.2-12.3-2.9
	c-0.4,2,1.3,2.1,1.9,3.2c-2.4-0.8-7.6,0.8-8.2-1.6c0.1-1.4,1.9-0.8,2.2-1.9c-1.3-1.5-5.5-0.3-3.9-4.3c-3.9,1.8-4.1-2.8-8-3.7
	c-2.1,4.4-7.9-0.4-11.4-0.8c-1.6,1.5-2.4,3.9-3.5,6c5.5,0.3,5,0.8,3.3-2.9c5.7-0.5,3.9,6.7,1.5,8.4c-6.8-4.8-16.8,2.1-21.5-4.5
	c2.2-3.5-0.5-3.5-1.6-6.3c1.8-1.3,3.6-2.5,7.4-1.6c-6.4-7.9,1.5-11.1-2.8-19.9c-5,0.9-6.5,5.9-11.8,6.5c-1.3,3.7,4.6,1.2,3.9,4.4
	c-1.7,3.2-6.2,4.3-5.7,6.9c-2.7,0.2-5.7,0.1-7.4,1.6c6.4-0.1-2,3.7,2.7,6.4c2-2.6,6.8,0.5,6,3.5c-1.4-0.1-1.1,1.8-2.2,1.9
	c-10.9-1.4-18-0.4-24.5-5.8c-2.1,1.8-0.3,2.6-0.3,5.2c-8.3,1.4-21.3,1-17-9.4c-3.2-3-9.1,1.7-12.3-1.9c4.1-2.5,4.5-10.8,11.8-6.5
	c0.8-6.9-5.3-1.8-6.8-6.7c1.4-1.5,4.6-6.6,2.6-8.1c-2.6,2.8-4.2-3.4-5.9-4.5c-0.7,3.6-4.7,1.7-2.5,6.1c-3.4,0.1-8.6,1.8-11.4-0.8
	c0,6.5,13.9,0.8,11.8,9.1c-1.9-0.4-2.4,1-4.2,0.8c-1.6-0.2-0.6-2.7-3-2.3c1.4,3.8-3.5,0.4-3.3,2.9c3.3,1.6,8.6,1.6,9,5.8
	c-4.2,0.4-6.3,3.2-9.6,4.5c-9.1-6.8-13.9,10.4-22.4,8.9c0.8,0.1,2,0.3,2,1.2c-6.2-4.7-17.3,2.9-15.1-7.2c-2,0.1-2.2-1.3-4.1-1.3
	c-0.3,1.5,0.1,3.8-1.3,4.1c-1.2-0.2-3,0-3-1.2c2.5-2.1-0.1-4,0.5-7.2l-7.2-0.5c-1.9,4.2,5.3,0.5,5,3.4c-2.4,4-6.6,2.8-12.7,4.3
	c0.4-2.9-2.9-2.6-2.8-5.4L339.3,66c0.1-1.4,0.2-2.8,0.3-4.1c-4.6-0.4-5.6,3.3-10.5,2.4c0,2.6-0.1,5-2.4,5c-1-2.1-5.6,0.9-9.3-0.6
	c1.3-5.3-4.8-4.2-3.5-9.6c1.9-3.8,6.7-4.2,7.9-8.8c-1.8-0.4-5.2,0.7-4-2.3c3.9-0.7,5.6,4.8,7.2,0.5c-4.6-2.5-10.8-3.6-13.6,1.2
	c-3.6-0.6,0.3-2.8-1.9-3.2c-1.8,0.9-2.3,3.3-4.4,3.9c-0.3-2-2.8-2.1-1.7-5.3c3.2,0.7,2.5-3,6.3-1.6c0.7-3.2-1.6-3.8-0.5-7.3
	c-2.9,0-7-1.4-7.4,1.6c0.9,1.2,3.8,0.6,2.9,3.3c-7.5,1.3-4.8,7.7-10.1,10.8c-0.6,2.8,5.7-0.4,5,2.4c-0.8,2-2.9,2.6-5.4,2.8
	c-1.3-6.8-5.7,4.8-7.2-1.5c-1,2.4,3.3,4.7,0.7,5.2l-13.4-0.9c1-3.1-0.8-3.8-0.6-6.3c3.7-1.3,4.9-5.6,7.8-7.8c2.8,2.5,7.1,3.6,10,5.9
	c2.1-5.7-13.7-8.4-9.3-16.2c-2.9,0.5-8.1-1.9-9.4,0.4c2.8,1.1,4.5,3.3,3.6,7.5c-0.8,2-6.1-1.1-5.4,2.8c0.2,1.8,3.7-1.1,2.9,3.3
	c-4.6-0.8-6.9-3.7-10-5.9c-0.4,1.8,0.7,5.2-2.3,4c-1,3.1,2.7,2.2,1.7,5.3c-2.1,1.1-8.7,0.3-10.3-0.7c-0.2-4.7,2.6-6,5.7-6.9
	c-5.1-4.5-11.9-1.8-18.3-5.4c3.9-0.9,2-4.2,3.5-6c4.8-0.3,6.3,2.3,11.3,1.8c-3.5-6.1-7.7-1.5-15.4-3.1c-4.4,11.8-17.9,2.7-27.4,6.5
	c0.6-3.5-1.5-4.5-2.7-6.4c-0.4,1.9,1,2.4,0.8,4.2c-5.2,0.9-10.6,2.5-14.5-1c-5.9,4.2-16.7-2.8-24.7-3.7c-2-0.2-4.1,1.7-6.3,1.7
	c-11.3-0.3-26.7-7.4-35-3.4c-2-1.8-4.4-3-7-3.6c-8.3,5.5-18.2-1.1-25.8-2.8c-6.7,5.1-12.4-6.6-22.7-1.5c-1.7-1.1-3.5-2.2-2.7-5.4
	C62.8,22.1,48.5,18,39.3,21C27.6,15.6,13.3,14,0,12.5v44.9c2.5,0.5,4.5,1.4,5.6,2.8c0.4,0.5-0.7,2.7-0.2,3.1c2.2,1.8,8,1.1,6.8,6.7
	c-1.9-0.4-2.4,1-4.2,0.8c1.6-6.5-5.5-4.1-8-5.3v97.7v23v51.8h0h1916.5v-74.8V27C1906.2,30.3,1895.3,33,1880.6,31.2z"/>
</svg>
